<svg width="12" height="12" viewBox="0 0 12 12" xmlns="http://www.w3.org/2000/svg">
<path fill-rule="evenodd" clip-rule="evenodd" d="M6.35363 0.646522L6.00008 0.292969L5.64652 0.646522L3.64652 2.64652L4.35363 3.35363L5.50008 2.20718V5.50008L2.20718 5.50008L3.35363 4.35363L2.64652 3.64652L0.646522 5.64652L0.292969 6.00008L0.646522 6.35363L2.64652 8.35363L3.35363 7.64652L2.20718 6.50008L5.50008 6.50008V9.79297L4.35363 8.64652L3.64652 9.35363L5.64652 11.3536L6.00008 11.7072L6.35363 11.3536L8.35363 9.35363L7.64652 8.64652L6.50008 9.79297V6.50008L9.79297 6.50008L8.64652 7.64652L9.35363 8.35363L11.3536 6.35363L11.7072 6.00008L11.3536 5.64652L9.35363 3.64652L8.64652 4.35363L9.79297 5.50008L6.50008 5.50008V2.20718L7.64652 3.35363L8.35363 2.64652L6.35363 0.646522Z"/>
</svg>
